<svg width="468" height="422" viewBox="0 0 468 422" fill="none" xmlns="http://www.w3.org/2000/svg">
<g clip-path="url(#clip0_142_3607)">
<path d="M127.179 301.618H122.006C122.006 292.943 114.983 285.912 106.326 285.912C102.795 285.912 99.5357 287.083 96.9139 289.055C96.9178 288.842 96.9296 288.633 96.9296 288.416C96.9296 275.107 86.159 264.317 72.8728 264.317C59.996 264.317 49.4892 274.448 48.8475 287.185C46.95 286.365 44.8557 285.912 42.6551 285.912C33.9945 285.912 26.9755 292.947 26.9755 301.618H21.8027C16.2875 301.618 11.8115 306.102 11.8115 311.627C11.8115 317.152 16.2875 321.635 21.8027 321.635H127.183C132.698 321.635 137.174 317.156 137.174 311.627C137.174 306.098 132.698 301.618 127.179 301.618Z" fill="#F6F6F6"/>
<path d="M397.874 203.039H394.056C394.056 196.638 388.876 191.448 382.485 191.448C379.879 191.448 377.474 192.313 375.54 193.769C375.544 193.612 375.552 193.454 375.552 193.296C375.552 183.475 367.604 175.513 357.801 175.513C348.3 175.513 340.542 182.989 340.071 192.388C338.669 191.784 337.125 191.447 335.502 191.447C329.111 191.447 323.93 196.636 323.93 203.038H320.113C316.042 203.038 312.74 206.345 312.74 210.422C312.74 214.5 316.042 217.808 320.113 217.808H397.872C401.944 217.808 405.245 214.501 405.245 210.422C405.245 206.343 401.946 203.039 397.874 203.039Z" fill="#F6F6F6"/>
<path d="M312.611 58.8165H309.415C309.415 53.4543 305.076 49.1087 299.726 49.1087C297.543 49.1087 295.528 49.8313 293.909 51.051C293.913 50.9202 293.921 50.7894 293.921 50.6565C293.921 42.4322 287.264 35.7637 279.054 35.7637C271.099 35.7637 264.602 42.0236 264.207 49.8957C263.033 49.3885 261.739 49.1087 260.381 49.1087C255.028 49.1087 250.69 53.4543 250.69 58.8165H247.493C244.085 58.8165 241.32 61.5861 241.32 65.0019C241.32 68.4176 244.085 71.1852 247.493 71.1852H312.614C316.023 71.1852 318.788 68.4156 318.788 65.0019C318.786 61.5861 316.021 58.8165 312.611 58.8165Z" fill="#F6F6F6"/>
<path d="M253.949 230.176L243.474 243.957L282.012 273.345L292.487 259.564L253.949 230.176Z" fill="#909090"/>
<path d="M288.839 248.281L374.051 309.625C382.253 315.529 384.114 326.976 378.209 335.195C372.304 343.412 360.87 345.289 352.669 339.385C352.414 339.201 352.119 338.974 351.876 338.781L270.132 272.876C263.497 267.526 267.65 259.747 273 253.094C278.163 246.675 282.234 243.547 288.839 248.281Z" fill="#666666"/>
<path d="M375.405 310.731C375.344 313.503 374.974 316.268 374.236 318.947C372.321 325.893 368.152 331.993 362.67 336.625C360.607 338.368 358.449 339.94 356.207 341.398C363.907 344.675 373.116 342.311 378.211 335.221C383.775 327.477 382.44 316.867 375.405 310.731Z" fill="#909090"/>
<path opacity="0.7" d="M266.258 146.87C286.294 187.767 269.409 237.222 228.547 257.329C187.683 277.437 138.312 260.582 118.275 219.684C98.2385 178.785 115.122 129.331 155.987 109.225C196.849 89.1171 246.221 105.971 266.258 146.87Z" fill="#D9D9D9"/>
<path d="M145.337 158.787C147.548 163.299 145.685 168.756 141.177 170.974C136.668 173.194 131.221 171.334 129.01 166.822C126.801 162.311 128.663 156.854 133.172 154.636C137.68 152.416 143.128 154.276 145.337 158.787Z" fill="#F6F6F6"/>
<path d="M167.995 242.154C166.692 242.795 165.109 242.817 163.737 242.075C150.227 234.769 140.126 222.417 134.527 206.35C130.348 194.356 130.124 184.52 130.116 184.107C130.07 181.539 132.11 179.418 134.676 179.369C137.238 179.32 139.352 181.359 139.404 183.922C139.407 184.067 139.649 192.951 143.393 203.552C148.302 217.452 156.633 227.659 168.156 233.89C170.412 235.109 171.252 237.93 170.031 240.191C169.554 241.076 168.832 241.743 167.995 242.154Z" fill="#F6F6F6"/>
<path d="M234.287 268.718C211.361 279.997 185.431 281.668 161.271 273.418C137.111 265.171 117.615 247.992 106.372 225.048C95.1309 202.105 93.4889 176.141 101.75 151.942C110.012 127.744 127.186 108.205 150.112 96.926C173.037 85.646 198.968 83.9766 223.127 92.2247C247.288 100.472 266.785 117.651 278.027 140.595C289.268 163.539 290.91 189.502 282.65 213.7C274.387 237.9 257.212 257.44 234.287 268.718ZM159.311 115.7C122.33 133.895 106.996 178.809 125.131 215.82C143.267 252.831 188.107 268.14 225.088 249.944C262.07 231.75 277.403 186.835 259.269 149.824C241.134 112.813 196.292 97.5046 159.311 115.7Z" fill="#BDBDBD"/>
</g>
<defs>
<clipPath id="clip0_142_3607">
<rect width="467" height="422" fill="white" transform="translate(0.5)"/>
</clipPath>
</defs>
</svg>
