<svg width="600" height="477" viewBox="0 0 600 477" fill="none" xmlns="http://www.w3.org/2000/svg">
<ellipse cx="300" cy="237.771" rx="153.747" ry="153.815" fill="#FFFBEB"/>
<path d="M300 350.249C329.704 350.249 358.192 338.444 379.196 317.43C400.2 296.417 412 267.917 412 238.2C412 208.482 400.2 179.982 379.196 158.969C358.192 137.955 329.704 126.15 300 126.15C270.296 126.15 241.808 137.955 220.804 158.969C199.8 179.982 188 208.482 188 238.2C188 267.917 199.8 296.417 220.804 317.43C241.808 338.444 270.296 350.249 300 350.249ZM349.438 217.628L293.438 273.653C289.325 277.767 282.675 277.767 278.606 273.653L250.606 245.64C246.494 241.526 246.494 234.873 250.606 230.803C254.719 226.732 261.369 226.688 265.438 230.803L286 251.374L334.563 202.746C338.675 198.632 345.325 198.632 349.394 202.746C353.463 206.861 353.506 213.514 349.394 217.584L349.438 217.628Z" fill="#FFC972"/>
<ellipse cx="515.628" cy="336.123" rx="12.8362" ry="12.8419" fill="#F4DDB9"/>
<ellipse cx="37.1028" cy="216.888" rx="12.8362" ry="12.8419" fill="#FDF8F0"/>
<ellipse cx="117.754" cy="355.386" rx="6.41787" ry="6.4207" fill="#F4DDB9"/>
<ellipse cx="107.341" cy="125.383" rx="15.8501" ry="15.857" fill="#FDF8F0"/>
<ellipse cx="483.601" cy="277.56" rx="7.33502" ry="7.33826" fill="#FDF8F0"/>
<ellipse cx="490.937" cy="81.1868" rx="7.33504" ry="7.33826" fill="#EECD98"/>
<ellipse cx="104" cy="73.8482" rx="7.33503" ry="7.33826" fill="#F4DDB9"/>
<ellipse cx="516.609" cy="109.526" rx="11.8561" ry="11.8613" fill="#FFE0AE"/>
<ellipse cx="123.191" cy="397.639" rx="11.856" ry="11.8613" fill="#EECD98"/>
</svg>
