<svg width="40" height="40" viewBox="0 0 40 40" fill="none" xmlns="http://www.w3.org/2000/svg">
<path d="M13.4737 25.9716C14.5249 25.247 15.5708 24.6854 16.6113 24.2866C17.6518 23.8876 18.7814 23.6882 20 23.6882C21.2186 23.6882 22.3509 23.8876 23.3968 24.2866C24.4426 24.6854 25.4911 25.247 26.5424 25.9716C27.3076 25.0851 27.8761 24.1489 28.2479 23.1632C28.6196 22.1774 28.8055 21.123 28.8055 20C28.8055 17.5168 27.9588 15.4284 26.2653 13.7347C24.5716 12.0412 22.4832 11.1945 20 11.1945C17.5168 11.1945 15.4284 12.0412 13.7347 13.7347C12.0412 15.4284 11.1945 17.5168 11.1945 20C11.1945 21.123 11.3831 22.1774 11.7603 23.1632C12.1375 24.1489 12.7086 25.0851 13.4737 25.9716ZM19.9942 20.5971C19.0481 20.5971 18.2521 20.2724 17.6063 19.6229C16.9605 18.9732 16.6376 18.1754 16.6376 17.2292C16.6376 16.2829 16.9625 15.4868 17.6121 14.8411C18.2616 14.1953 19.0595 13.8724 20.0058 13.8724C20.9519 13.8724 21.7479 14.1972 22.3937 14.8468C23.0395 15.4963 23.3624 16.2942 23.3624 17.2405C23.3624 18.1868 23.0375 18.9828 22.3879 19.6284C21.7384 20.2742 20.9405 20.5971 19.9942 20.5971ZM20.0124 30C18.6262 30 17.3259 29.7389 16.1113 29.2166C14.8966 28.6943 13.8355 27.9787 12.9282 27.0697C12.0206 26.161 11.3057 25.102 10.7834 23.8929C10.2611 22.6838 10 21.3855 10 19.9982C10 18.6108 10.2611 17.3132 10.7834 16.1053C11.3057 14.8974 12.0213 13.839 12.9303 12.9303C13.839 12.0213 14.898 11.3057 16.1071 10.7834C17.3162 10.2611 18.6145 10 20.0018 10C21.3892 10 22.6868 10.2611 23.8947 10.7834C25.1026 11.3057 26.161 12.0213 27.0697 12.9303C27.9787 13.839 28.6943 14.8976 29.2166 16.1061C29.7389 17.3145 30 18.6083 30 19.9876C30 21.3738 29.7389 22.6741 29.2166 23.8887C28.6943 25.1034 27.9787 26.1645 27.0697 27.0718C26.161 27.9794 25.1024 28.6943 23.8939 29.2166C22.6855 29.7389 21.3917 30 20.0124 30ZM20 28.8055C20.9784 28.8055 21.9433 28.65 22.8947 28.3389C23.8461 28.0279 24.7422 27.5249 25.5829 26.83C24.7422 26.2119 23.8518 25.7328 22.9118 25.3926C21.972 25.0526 21.0014 24.8826 20 24.8826C18.9986 24.8826 18.0262 25.051 17.0829 25.3876C16.1396 25.7243 15.2543 26.2051 14.4271 26.83C15.2611 27.5249 16.1539 28.0279 17.1053 28.3389C18.0567 28.65 19.0216 28.8055 20 28.8055ZM20.0013 19.4029C20.6306 19.4029 21.149 19.1986 21.5566 18.79C21.9643 18.3816 22.1682 17.8627 22.1682 17.2334C22.1682 16.6041 21.9639 16.0857 21.5553 15.6782C21.1468 15.2706 20.628 15.0668 19.9987 15.0668C19.3694 15.0668 18.851 15.2711 18.4434 15.6795C18.0357 16.0881 17.8318 16.607 17.8318 17.2363C17.8318 17.8656 18.0361 18.384 18.4447 18.7916C18.8532 19.1991 19.372 19.4029 20.0013 19.4029Z" fill="#B7751E"/>
</svg>
