<svg width="40" height="40" viewBox="0 0 40 40" fill="none" xmlns="http://www.w3.org/2000/svg">
<path d="M13.3077 28.5C12.8026 28.5 12.375 28.325 12.025 27.975C11.675 27.625 11.5 27.1974 11.5 26.6923V13.3077C11.5 12.8026 11.675 12.375 12.025 12.025C12.375 11.675 12.8026 11.5 13.3077 11.5H20.0095V13H13.3077C13.2307 13 13.1603 13.0321 13.0963 13.0962C13.0321 13.1602 13 13.2307 13 13.3077V26.6923C13 26.7692 13.0321 26.8398 13.0963 26.9038C13.1603 26.9679 13.2307 27 13.3077 27H20.0095V28.5H13.3077ZM24.2308 24.2692L23.1923 23.1845L25.627 20.75H17.0963V19.25H25.627L23.1923 16.8155L24.2308 15.7307L28.5 20L24.2308 24.2692Z" fill="#B7751E"/>
</svg>
