<svg width="40" height="40" viewBox="0 0 40 40" fill="none" xmlns="http://www.w3.org/2000/svg">
<path d="M20 28.3267L18.8963 27.3345C17.2386 25.8307 15.8678 24.5384 14.7838 23.4577C13.6998 22.3769 12.8408 21.415 12.2068 20.572C11.5728 19.7292 11.1298 18.9602 10.878 18.2652C10.626 17.5704 10.5 16.8653 10.5 16.15C10.5 14.7308 10.9785 13.5427 11.9355 12.5855C12.8927 11.6285 14.0808 11.15 15.5 11.15C16.373 11.15 17.198 11.3542 17.975 11.7625C18.752 12.1708 19.427 12.7564 20 13.5192C20.573 12.7564 21.248 12.1708 22.025 11.7625C22.802 11.3542 23.627 11.15 24.5 11.15C25.9192 11.15 27.1073 11.6285 28.0645 12.5855C29.0215 13.5427 29.5 14.7308 29.5 16.15C29.5 16.8653 29.374 17.5704 29.122 18.2652C28.8702 18.9602 28.4272 19.7292 27.7932 20.572C27.1593 21.415 26.3018 22.3769 25.221 23.4577C24.1403 24.5384 22.7679 25.8307 21.1038 27.3345L20 28.3267ZM20 26.3C21.6 24.8603 22.9167 23.6263 23.95 22.598C24.9833 21.5698 25.8 20.6766 26.4 19.9182C27 19.1599 27.4167 18.4865 27.65 17.898C27.8833 17.3097 28 16.727 28 16.15C28 15.15 27.6667 14.3167 27 13.65C26.3333 12.9833 25.5 12.65 24.5 12.65C23.7103 12.65 22.9805 12.874 22.3105 13.322C21.6407 13.7702 21.1102 14.3936 20.7192 15.1922H19.2808C18.8833 14.3871 18.3512 13.7621 17.6845 13.3172C17.0178 12.8724 16.2897 12.65 15.5 12.65C14.5063 12.65 13.6746 12.9833 13.0048 13.65C12.3349 14.3167 12 15.15 12 16.15C12 16.727 12.1167 17.3097 12.35 17.898C12.5833 18.4865 13 19.1599 13.6 19.9182C14.2 20.6766 15.0167 21.5682 16.05 22.5932C17.0833 23.6182 18.4 24.8538 20 26.3Z" fill="#B7751E"/>
</svg>
