<svg width="40" height="40" viewBox="0 0 40 40" fill="none" xmlns="http://www.w3.org/2000/svg">
<path d="M19.3463 24.6538H26.6538V24.2963C26.6538 23.6296 26.324 23.1058 25.6645 22.725C25.0048 22.3442 24.1167 22.1538 23 22.1538C21.8833 22.1538 20.9952 22.3442 20.3355 22.725C19.676 23.1058 19.3463 23.6296 19.3463 24.2963V24.6538ZM23 20.8463C23.4858 20.8463 23.899 20.676 24.2395 20.3355C24.5798 19.9952 24.75 19.5821 24.75 19.0962C24.75 18.6102 24.5798 18.1971 24.2395 17.8568C23.899 17.5164 23.4858 17.3462 23 17.3462C22.5142 17.3462 22.101 17.5164 21.7605 17.8568C21.4202 18.1971 21.25 18.6102 21.25 19.0962C21.25 19.5821 21.4202 19.9952 21.7605 20.3355C22.101 20.676 22.5142 20.8463 23 20.8463ZM12.3077 27.5C11.8026 27.5 11.375 27.325 11.025 26.975C10.675 26.625 10.5 26.1974 10.5 25.6923V14.3077C10.5 13.8026 10.675 13.375 11.025 13.025C11.375 12.675 11.8026 12.5 12.3077 12.5H17.798L19.798 14.5H27.6923C28.1974 14.5 28.625 14.675 28.975 15.025C29.325 15.375 29.5 15.8026 29.5 16.3077V25.6923C29.5 26.1974 29.325 26.625 28.975 26.975C28.625 27.325 28.1974 27.5 27.6923 27.5H12.3077ZM12.3077 26H27.6923C27.7821 26 27.8558 25.9712 27.9135 25.9135C27.9712 25.8558 28 25.7821 28 25.6923V16.3077C28 16.2179 27.9712 16.1442 27.9135 16.0865C27.8558 16.0288 27.7821 16 27.6923 16H19.1845L17.1845 14H12.3077C12.2179 14 12.1442 14.0288 12.0865 14.0865C12.0288 14.1442 12 14.2179 12 14.3077V25.6923C12 25.7821 12.0288 25.8558 12.0865 25.9135C12.1442 25.9712 12.2179 26 12.3077 26Z" fill="#B7751E"/>
</svg>
