<svg width="40" height="40" viewBox="0 0 40 40" fill="none" xmlns="http://www.w3.org/2000/svg">
<path d="M14 29.5C13.3013 29.5 12.71 29.258 12.226 28.774C11.742 28.29 11.5 27.7002 11.5 27.0045V24.5H14.5V10.6922L15.8848 11.8847L17.2885 10.6922L18.6923 11.8847L20.0963 10.6922L21.5 11.8847L22.9038 10.6922L24.3077 11.8847L25.7115 10.6922L27.1152 11.8847L28.5 10.6922V27C28.5 27.6987 28.258 28.29 27.774 28.774C27.29 29.258 26.6987 29.5 26 29.5H14ZM26 28C26.2833 28 26.5208 27.9042 26.7125 27.7125C26.9042 27.5208 27 27.2833 27 27V13H16V24.5H25V27C25 27.2833 25.0958 27.5208 25.2875 27.7125C25.4792 27.9042 25.7167 28 26 28ZM17.1923 16.75V15.25H22.8652V16.75H17.1923ZM17.1923 19.75V18.25H22.8652V19.75H17.1923ZM24.9423 16.8845C24.6974 16.8845 24.4888 16.7983 24.3163 16.626C24.1439 16.4535 24.0577 16.2448 24.0577 16C24.0577 15.7552 24.1439 15.5465 24.3163 15.374C24.4888 15.2017 24.6974 15.1155 24.9423 15.1155C25.1871 15.1155 25.3958 15.2017 25.5682 15.374C25.7407 15.5465 25.827 15.7552 25.827 16C25.827 16.2448 25.7407 16.4535 25.5682 16.626C25.3958 16.7983 25.1871 16.8845 24.9423 16.8845ZM24.9423 19.8845C24.6974 19.8845 24.4888 19.7983 24.3163 19.626C24.1439 19.4535 24.0577 19.2448 24.0577 19C24.0577 18.7552 24.1439 18.5465 24.3163 18.374C24.4888 18.2017 24.6974 18.1155 24.9423 18.1155C25.1871 18.1155 25.3958 18.2017 25.5682 18.374C25.7407 18.5465 25.827 18.7552 25.827 19C25.827 19.2448 25.7407 19.4535 25.5682 19.626C25.3958 19.7983 25.1871 19.8845 24.9423 19.8845ZM14 28H23.5V26H13V27C13 27.2833 13.0958 27.5208 13.2875 27.7125C13.4792 27.9042 13.7167 28 14 28Z" fill="#B7751E"/>
</svg>
