<svg width="24" height="24" viewBox="0 0 24 24" fill="none" xmlns="http://www.w3.org/2000/svg">
<path d="M5.5 18.5H6.7615L16.998 8.2635L15.7365 7.002L5.5 17.2385V18.5ZM4 20V16.6155L17.1905 3.43075C17.3417 3.29342 17.5086 3.18733 17.6913 3.1125C17.8741 3.0375 18.0658 3 18.2663 3C18.4668 3 18.6609 3.03558 18.8488 3.10675C19.0367 3.17792 19.2032 3.29108 19.348 3.44625L20.5693 4.68275C20.7244 4.82758 20.835 4.99425 20.901 5.18275C20.967 5.37125 21 5.55975 21 5.74825C21 5.94942 20.9657 6.14133 20.897 6.324C20.8283 6.50683 20.7191 6.67383 20.5693 6.825L7.3845 20H4ZM16.3562 7.64375L15.7365 7.002L16.998 8.2635L16.3562 7.64375Z" fill="#E7A230"/>
</svg>
