<svg width="24" height="24" viewBox="0 0 24 24" fill="none" xmlns="http://www.w3.org/2000/svg">
<path d="M5.55184 17.8382C6.55096 17.1669 7.5714 16.6474 8.61316 16.2795C9.65474 15.9114 10.7837 15.7274 12 15.7274C13.2163 15.7274 14.3471 15.9114 15.3924 16.2795C16.4376 16.6474 17.4598 17.1669 18.4589 17.8382C19.1872 17.0073 19.739 16.1058 20.1145 15.1337C20.4897 14.1616 20.6774 13.117 20.6774 12C20.6774 9.56684 19.8395 7.51228 18.1637 5.83632C16.4877 4.16053 14.4332 3.32263 12 3.32263C9.56684 3.32263 7.51228 4.16053 5.83632 5.83632C4.16053 7.51228 3.32263 9.56684 3.32263 12C3.32263 13.117 3.51211 14.1616 3.89105 15.1337C4.27 16.1058 4.8236 17.0073 5.55184 17.8382ZM11.9968 12.6613C11.0453 12.6613 10.2442 12.335 9.59368 11.6824C8.94333 11.0297 8.61816 10.2276 8.61816 9.27605C8.61816 8.32465 8.94447 7.52368 9.59711 6.87316C10.2497 6.22263 11.0518 5.89737 12.0032 5.89737C12.9547 5.89737 13.7558 6.22368 14.4063 6.87632C15.0567 7.52895 15.3818 8.33105 15.3818 9.28263C15.3818 10.234 15.0555 11.035 14.4029 11.6855C13.7503 12.3361 12.9482 12.6613 11.9968 12.6613ZM11.9929 22C10.6071 22 9.30509 21.7389 8.08684 21.2166C6.86877 20.6943 5.80912 19.9802 4.90789 19.0742C4.00667 18.1682 3.29675 17.109 2.77816 15.8966C2.25939 14.6841 2 13.3824 2 11.9913C2 10.6046 2.26114 9.30395 2.78342 8.08921C3.3057 6.87447 4.01982 5.8171 4.92579 4.9171C5.83175 4.01693 6.89096 3.3057 8.10342 2.78342C9.31588 2.26114 10.6176 2 12.0087 2C13.3954 2 14.6961 2.26114 15.9108 2.78342C17.1255 3.3057 18.1829 4.01693 19.0829 4.9171C19.9831 5.8171 20.6943 6.87544 21.2166 8.09211C21.7389 9.30877 22 10.6098 22 11.9953C22 13.3854 21.7389 14.6863 21.2166 15.8979C20.6943 17.1095 19.9831 18.1682 19.0829 19.0742C18.1829 19.9802 17.1238 20.6943 15.9055 21.2166C14.6875 21.7389 13.3832 22 11.9929 22Z" fill="#614C2B"/>
</svg>
