<svg width="24" height="24" viewBox="0 0 24 24" fill="none" xmlns="http://www.w3.org/2000/svg">
<path fill-rule="evenodd" clip-rule="evenodd" d="M4.00024 11.9992C4.00038 10.4599 4.4447 8.95326 5.27987 7.66016C6.11504 6.36706 7.30559 5.34241 8.70866 4.70916C10.1117 4.07591 11.6677 3.86096 13.1899 4.0901C14.7121 4.31924 16.1359 4.98274 17.2904 6.00098C18.4448 7.01922 19.281 8.34895 19.6985 9.83062C20.1159 11.3123 20.097 12.8829 19.644 14.3541C19.1909 15.8253 18.323 17.1345 17.1444 18.1247C15.9657 19.1148 14.5264 19.7438 12.9991 19.9362V13.999H14.9989C15.264 13.999 15.5184 13.8936 15.7059 13.7061C15.8934 13.5186 15.9987 13.2643 15.9987 12.9991C15.9987 12.7339 15.8934 12.4796 15.7059 12.2921C15.5184 12.1046 15.264 11.9992 14.9989 11.9992H12.9991V9.99949C12.9991 9.7343 13.1045 9.47998 13.292 9.29247C13.4795 9.10496 13.7338 8.99961 13.999 8.99961H14.4989C14.7641 8.99961 15.0184 8.89427 15.2059 8.70676C15.3935 8.51924 15.4988 8.26492 15.4988 7.99974C15.4988 7.73455 15.3935 7.48023 15.2059 7.29272C15.0184 7.10521 14.7641 6.99986 14.4989 6.99986H13.999C13.2034 6.99986 12.4405 7.31589 11.8779 7.87843C11.3154 8.44097 10.9994 9.20394 10.9994 9.99949V11.9992H8.99961C8.73443 11.9992 8.48011 12.1046 8.29259 12.2921C8.10508 12.4796 7.99974 12.7339 7.99974 12.9991C7.99974 13.2643 8.10508 13.5186 8.29259 13.7061C8.48011 13.8936 8.73443 13.999 8.99961 13.999H10.9994V19.9362C9.06622 19.6927 7.28844 18.7519 5.99974 17.2905C4.71105 15.8292 4.00006 13.9477 4.00024 11.9992ZM11.9992 21.998C17.5215 21.998 21.998 17.5215 21.998 11.9992C21.998 6.47693 17.5215 2.00049 11.9992 2.00049C6.47693 2.00049 2.00049 6.47693 2.00049 11.9992C2.00049 17.5215 6.47693 21.998 11.9992 21.998Z" fill="white"/>
</svg>
