<svg width="24" height="24" viewBox="0 0 24 24" fill="none" xmlns="http://www.w3.org/2000/svg">
<path d="M11.5494 11.3918C11.9524 11.3918 12.2969 11.2483 12.5829 10.9612C12.8691 10.6742 13.0122 10.3292 13.0122 9.92627C13.0122 9.52329 12.8687 9.17871 12.5817 8.89251C12.2947 8.60644 11.9497 8.46341 11.5465 8.46341C11.1436 8.46341 10.7991 8.60691 10.513 8.89392C10.2268 9.18093 10.0837 9.52599 10.0837 9.9291C10.0837 10.3321 10.2272 10.6766 10.5142 10.9627C10.8012 11.2487 11.1463 11.3918 11.5494 11.3918ZM11.548 17.5868C13.1326 16.1683 14.3452 14.8076 15.1859 13.5048C16.0265 12.2021 16.4468 11.0611 16.4468 10.0818C16.4468 8.60516 15.9777 7.39124 15.0395 6.44003C14.1012 5.48882 12.9374 5.01321 11.548 5.01321C10.1585 5.01321 8.99471 5.48882 8.05646 6.44003C7.11821 7.39124 6.64908 8.60516 6.64908 10.0818C6.64908 11.0611 7.0694 12.2021 7.91005 13.5048C8.75069 14.8076 9.96333 16.1683 11.548 17.5868ZM11.548 19.2036C9.50946 17.4373 7.98086 15.7934 6.96215 14.2721C5.94344 12.7507 5.43408 11.3539 5.43408 10.0818C5.43408 8.21258 6.03868 6.6993 7.24787 5.54194C8.4572 4.38459 9.89057 3.80591 11.548 3.80591C13.2054 3.80591 14.6387 4.38459 15.8481 5.54194C17.0572 6.6993 17.6618 8.21258 17.6618 10.0818C17.6618 11.3539 17.1525 12.7507 16.1338 14.2721C15.1151 15.7934 13.5865 17.4373 11.548 19.2036Z" fill="#614C2B"/>
</svg>
