<svg width="24" height="24" viewBox="0 0 24 24" fill="none" xmlns="http://www.w3.org/2000/svg">
<path d="M20.6667 22L13.4631 14.7964C12.9075 15.2655 12.2627 15.6328 11.5286 15.8983C10.7945 16.1637 10.0134 16.2964 9.18528 16.2964C7.17713 16.2964 5.4775 15.6004 4.08639 14.2083C2.69546 12.8165 2 11.1298 2 9.14833C2 7.16685 2.69602 5.48009 4.08806 4.08805C5.47991 2.69602 7.16972 2 9.1575 2C11.1451 2 12.8318 2.69602 14.2175 4.08805C15.6034 5.48009 16.2964 7.16778 16.2964 9.15111C16.2964 9.95167 16.1668 10.7193 15.9075 11.4539C15.6482 12.1883 15.2717 12.8643 14.7778 13.4817L22 20.6667L20.6667 22ZM9.16667 14.4444C10.6328 14.4444 11.8789 13.9275 12.905 12.8936C13.9313 11.8597 14.4444 10.6113 14.4444 9.14833C14.4444 7.68537 13.9313 6.43685 12.905 5.40278C11.8789 4.36889 10.6328 3.85194 9.16667 3.85194C7.69037 3.85194 6.43546 4.36889 5.40194 5.40278C4.36861 6.43685 3.85194 7.68537 3.85194 9.14833C3.85194 10.6113 4.36861 11.8597 5.40194 12.8936C6.43546 13.9275 7.69037 14.4444 9.16667 14.4444Z" fill="#614C2B"/>
</svg>
