<svg width="24" height="24" viewBox="0 0 24 24" fill="none" xmlns="http://www.w3.org/2000/svg">
<path d="M9.45828 9.52C9.13043 9.295 8.04243 8.5175 8.04243 8.5175C8.96043 7.16625 10.1711 6.64 11.8456 6.64C13.0295 6.64 14.0349 7.04875 14.7526 7.825C15.4702 8.60125 15.8794 9.71125 15.9729 11.13C16.3712 11.3025 16.7375 11.5042 17.0719 11.735C18.4185 12.6663 19.1592 14.06 19.1592 15.6562C19.1592 19.0513 16.4562 22 11.5626 22C7.36121 22 2.99707 19.4837 2.99707 11.9925C2.99707 4.5425 7.22521 2 11.5505 2C13.4509 2 17.7818 2.2746 19.7167 7.45159C19.8867 7.90655 19.6104 8.39831 19.1412 8.52369C18.6957 8.64271 18.2394 8.3888 18.0663 7.96145C16.6168 4.38341 13.9563 3.7875 11.5044 3.7875C7.17543 3.7875 4.72621 6.50125 4.72621 12.275C4.72621 17.4538 7.46321 20.2038 11.5626 20.2038C14.9347 20.2038 17.4483 18.4 17.4483 15.7587C17.4483 13.9613 15.9814 13.1 15.9061 13.1C15.6196 14.6425 14.8521 17.2375 11.4813 17.2375C9.51657 17.2375 7.82264 15.84 7.82264 14.01C7.82264 11.3975 10.2318 10.4513 12.1334 10.4513C12.8449 10.4513 13.7046 10.5013 14.1527 10.5938C14.1527 9.7975 13.497 8.43375 11.8456 8.43375C10.3289 8.43375 9.94459 8.93922 9.4582 9.51741C9.45756 9.51817 9.4576 9.51929 9.45828 9.52ZM12.3665 12.2375C9.88936 12.2375 9.56878 13.325 9.56878 14.0075C9.56878 15.105 10.8353 15.4675 11.5116 15.4675C12.7502 15.4675 14.0216 15.115 14.2219 12.4387C13.6139 12.2927 12.9907 12.2251 12.3665 12.2375Z" fill="white"/>
</svg>
