<svg width="24" height="24" viewBox="0 0 24 24" fill="none" xmlns="http://www.w3.org/2000/svg">
<path d="M4.06425 17.4999C3.63442 17.4999 3.26625 17.3467 2.95975 17.0402C2.65325 16.7337 2.5 16.3655 2.5 15.9357V8.06419C2.5 7.64019 2.65325 7.27352 2.95975 6.96419C3.26625 6.65469 3.63442 6.49994 4.06425 6.49994H19.9358C20.3656 6.49994 20.7338 6.65469 21.0403 6.96419C21.3468 7.27352 21.5 7.64019 21.5 8.06419V15.9357C21.5 16.3655 21.3468 16.7337 21.0403 17.0402C20.7338 17.3467 20.3656 17.4999 19.9358 17.4999H4.06425ZM4.06425 15.9357H19.9358C20.0128 15.9357 20.0833 16.2114 20.1475 16.1474C20.2115 16.0833 19.9358 16.0127 19.9358 15.9357V8.06419C19.9358 7.98719 19.9358 8.06419 19.9358 7.96484C19.9358 7.8655 19.9358 7.96484 19.9358 7.85244H16.8717V11.6152H15.5V7.85244H12.6283V11.6152H11.2915V7.85244H8.3845V11.6152H7V7.85244H4.06425C4.06425 7.93495 4.06425 7.85244 4.06425 7.93495C4.06425 8.06419 4.06425 7.98719 4.06425 8.06419V15.9357C4.06425 16.0127 3.7885 16.0833 3.8525 16.1474C3.91667 16.2114 3.98725 15.9357 4.06425 15.9357Z" fill="#B7751E"/>
</svg>
