<svg width="24" height="24" viewBox="0 0 24 24" fill="none" xmlns="http://www.w3.org/2000/svg">
<g clip-path="url(#clip0_941_2139)">
<path d="M10.2149 13.8061C10.2149 13.1911 10.5104 12.2131 12.8054 12.2131C13.5089 12.2131 13.9424 12.2641 14.5244 12.3946C14.3384 14.8036 13.1594 15.1216 12.0134 15.1216C11.3864 15.1216 10.2149 14.7946 10.2149 13.8061Z" fill="#121212"/>
<path d="M3.885 24H20.115C21.1454 24 22.1335 23.5907 22.8621 22.8621C23.5907 22.1335 24 21.1454 24 20.115V3.885C24 2.85463 23.5907 1.86647 22.8621 1.13789C22.1335 0.409311 21.1454 0 20.115 0L3.885 0C2.85463 0 1.86647 0.409311 1.13789 1.13789C0.409311 1.86647 0 2.85463 0 3.885L0 20.115C0 21.1454 0.409311 22.1335 1.13789 22.8621C1.86647 23.5907 2.85463 24 3.885 24ZM8.799 8.865C9.6495 7.65 10.7715 7.176 12.324 7.176C13.419 7.176 14.3505 7.545 15.0165 8.2425C15.681 8.9415 16.0605 9.9405 16.1475 11.217C16.5155 11.371 16.8545 11.5525 17.1645 11.7615C18.4125 12.6 19.0995 13.854 19.0995 15.291C19.0995 18.3465 16.5945 21 12.0615 21C8.169 21 4.125 18.735 4.125 11.994C4.125 5.289 8.0415 3 12.0495 3C13.9005 3 18.243 3.273 19.875 8.6655L18.345 9.0615C17.082 5.2215 14.4345 4.6095 12.009 4.6095C7.9965 4.6095 5.7285 7.0515 5.7285 12.249C5.7285 16.9095 8.2635 19.3845 12.0615 19.3845C15.186 19.3845 17.5155 17.7615 17.5155 15.384C17.5155 13.7655 16.1565 12.9915 16.086 12.9915C15.8205 14.379 15.1095 16.7145 11.9865 16.7145C10.167 16.7145 8.5965 15.4575 8.5965 13.8105C8.5965 11.4585 10.8285 10.6065 12.591 10.6065C13.251 10.6065 14.046 10.6515 14.4615 10.7355C14.4615 10.0185 13.8555 8.7915 12.3225 8.7915C10.956 8.7915 10.5825 9.2235 10.1475 9.7275L10.1115 9.768C9.8085 9.5655 8.799 8.865 8.799 8.865Z" fill="#121212"/>
</g>
<defs>
<clipPath id="clip0_941_2139">
<rect width="24" height="24" fill="white"/>
</clipPath>
</defs>
</svg>
