<svg width="24" height="24" viewBox="0 0 24 24" fill="none" xmlns="http://www.w3.org/2000/svg">
<path d="M7.85813 2.06968C6.79396 2.11968 6.06729 2.28968 5.43313 2.53885C4.76622 2.79148 4.16226 3.18616 3.66313 3.69552C3.15587 4.19603 2.76348 4.80082 2.51313 5.46802C2.26729 6.10468 2.09979 6.83302 2.05313 7.89635C2.00646 8.95968 1.99563 9.30302 2.00063 12.0189C2.00563 14.7347 2.01813 15.0747 2.06979 16.1413C2.12063 17.2055 2.28979 17.9322 2.53896 18.5672C2.79563 19.2247 3.13896 19.7814 3.69563 20.3364C4.19662 20.8438 4.80201 21.2362 5.46979 21.4864C6.10563 21.7322 6.83313 21.8997 7.89729 21.9464C8.96229 21.993 9.30479 22.0039 12.0198 21.9989C14.7348 21.9939 15.0765 21.9814 16.1423 21.9305C17.209 21.8805 17.9315 21.7097 18.5673 21.4614C19.2339 21.2086 19.8376 20.8139 20.3365 20.3047C20.8439 19.8037 21.2363 19.1983 21.4865 18.5305C21.7323 17.8947 21.8998 17.1672 21.9456 16.1039C21.9923 15.0372 22.004 14.6955 21.9981 11.9805C21.9931 9.26552 21.9815 8.92468 21.9306 7.85802C21.8806 6.79135 21.7106 6.06802 21.4606 5.43218C21.2081 4.76565 20.8137 4.16199 20.3048 3.66302C19.804 3.15566 19.1989 2.76326 18.5315 2.51302C17.8948 2.26802 17.1681 2.09968 16.1031 2.05468C15.039 2.00718 14.6965 1.99468 11.9806 1.99968C9.26479 2.00468 8.92479 2.01718 7.85813 2.06968ZM7.97479 20.1472C6.99979 20.1055 6.47063 19.943 6.11813 19.8072C5.68309 19.6482 5.28946 19.3933 4.96646 19.0614C4.63342 18.7397 4.37707 18.3472 4.21646 17.913C4.07896 17.5605 3.91396 17.0314 3.86896 16.0564C3.81896 15.003 3.80896 14.6864 3.80229 12.0164C3.79729 9.34635 3.80729 9.03052 3.85313 7.97635C3.89479 7.00218 4.05813 6.47218 4.19313 6.11968C4.37313 5.65218 4.59063 5.31968 4.93896 4.96802C5.26081 4.63487 5.6536 4.37852 6.08813 4.21802C6.44063 4.08052 6.96896 3.91718 7.94396 3.87052C8.99813 3.82052 9.31396 3.81052 11.984 3.80385C14.6531 3.79885 14.9698 3.80885 16.0256 3.85552C16.999 3.89718 17.529 4.05885 17.8815 4.19552C18.3481 4.37552 18.6815 4.59135 19.0331 4.94135C19.3848 5.29135 19.6006 5.62218 19.7831 6.08968C19.9206 6.44135 20.0848 6.96968 20.1306 7.94552C20.1806 8.99968 20.1923 9.31635 20.1973 11.9855C20.2015 14.6547 20.1923 14.9713 20.1465 16.0255C20.104 17.0005 19.9423 17.5297 19.8065 17.8839C19.6265 18.3505 19.409 18.6839 19.0598 19.0339C18.7382 19.3669 18.3457 19.6232 17.9115 19.7839C17.5598 19.9214 17.0298 20.0855 16.0565 20.1322C15.0015 20.1822 14.6856 20.1922 12.0148 20.198C9.34396 20.2038 9.02979 20.1922 7.97479 20.1472ZM16.1273 6.65468C16.1276 6.89206 16.1983 7.124 16.3305 7.32117C16.4627 7.51834 16.6504 7.67189 16.8698 7.76239C17.0893 7.85288 17.3306 7.87626 17.5633 7.82957C17.7961 7.78287 18.0097 7.66821 18.1773 7.50007C18.3448 7.33193 18.4588 7.11787 18.5047 6.88498C18.5505 6.65208 18.5263 6.41081 18.4351 6.19168C18.3438 5.97255 18.1896 5.7854 17.992 5.65392C17.7944 5.52244 17.5622 5.45252 17.3248 5.45302C17.0067 5.45368 16.7018 5.58063 16.4773 5.80596C16.2527 6.03129 16.1268 6.33657 16.1273 6.65468ZM6.86563 12.0097C6.86828 13.3715 7.41179 14.6764 8.37658 15.6375C9.34138 16.5985 10.6484 17.1369 12.0102 17.1343C13.372 17.1316 14.6769 16.5881 15.638 15.6233C16.599 14.6585 17.1374 13.3515 17.1348 11.9897C17.1152 10.6391 16.5642 9.35071 15.6013 8.40353C14.6384 7.45635 13.341 6.92671 11.9903 6.92934C10.6396 6.93197 9.34439 7.46666 8.38516 8.41758C7.42594 9.36851 6.88 10.6591 6.86563 12.0097ZM8.66646 12.0064C8.66514 11.3471 8.85935 10.7022 9.22453 10.1533C9.5897 9.60444 10.1094 9.17616 10.718 8.92265C11.3266 8.66914 11.9967 8.60179 12.6435 8.72911C13.2904 8.85644 13.885 9.17272 14.3521 9.63796C14.8192 10.1032 15.1379 10.6965 15.2678 11.3428C15.3977 11.9892 15.333 12.6595 15.0819 13.2691C14.8309 13.8787 14.4047 14.4002 13.8572 14.7675C13.3098 15.1349 12.6657 15.3317 12.0065 15.333C11.5687 15.3339 11.1351 15.2485 10.7303 15.0818C10.3256 14.9151 9.95763 14.6703 9.64748 14.3614C9.33734 14.0525 9.09107 13.6855 8.92274 13.2815C8.75442 12.8774 8.66734 12.4441 8.66646 12.0064Z" fill="white"/>
</svg>
