<svg width="24" height="24" viewBox="0 0 24 24" fill="none" xmlns="http://www.w3.org/2000/svg">
<path d="M18.2005 19.0834C16.6301 19.0834 15.0524 18.7183 13.4674 17.988C11.8825 17.2577 10.4264 16.2276 9.09887 14.8976C7.77151 13.5674 6.74269 12.1112 6.01241 10.5288C5.28213 8.94661 4.91699 7.37029 4.91699 5.79987C4.91699 5.54751 5.00033 5.33723 5.16699 5.16904C5.33366 5.00084 5.54199 4.91675 5.79199 4.91675H8.50991C8.72033 4.91675 8.90595 4.98543 9.06678 5.12279C9.22762 5.26001 9.32991 5.4296 9.37366 5.63154L9.85137 8.08341C9.88442 8.31091 9.87748 8.5064 9.83053 8.66987C9.78345 8.83335 9.69901 8.97064 9.5772 9.08175L7.65262 10.9553C7.96234 11.5225 8.31623 12.0591 8.71428 12.5651C9.1122 13.0709 9.54303 13.554 10.0068 14.0145C10.464 14.4718 10.9501 14.8965 11.4651 15.2886C11.9801 15.6807 12.5362 16.0456 13.1335 16.3832L15.0035 14.497C15.1339 14.3613 15.2918 14.2661 15.4772 14.2115C15.6625 14.1571 15.855 14.1438 16.0549 14.1715L18.3689 14.6428C18.5793 14.6983 18.751 14.8057 18.8841 14.9649C19.0171 15.124 19.0837 15.3046 19.0837 15.5065V18.2084C19.0837 18.4584 18.9996 18.6667 18.8314 18.8334C18.6632 19.0001 18.4529 19.0834 18.2005 19.0834ZM7.06116 9.77258L8.54845 8.34946C8.57512 8.32807 8.59248 8.29869 8.60053 8.26133C8.60859 8.22397 8.60727 8.18925 8.59658 8.15716L8.23428 6.29487C8.22359 6.25223 8.20491 6.22022 8.17824 6.19883C8.15158 6.17744 8.11685 6.16675 8.07408 6.16675H6.29199C6.25991 6.16675 6.23317 6.17744 6.21178 6.19883C6.19053 6.22022 6.17991 6.24696 6.17991 6.27904C6.22255 6.84848 6.31574 7.42696 6.45949 8.01446C6.6031 8.6021 6.80366 9.18814 7.06116 9.77258ZM14.3112 16.9745C14.8635 17.232 15.4396 17.4288 16.0395 17.5651C16.6395 17.7012 17.2001 17.7821 17.7214 17.8078C17.7534 17.8078 17.7802 17.7971 17.8016 17.7757C17.823 17.7543 17.8337 17.7276 17.8337 17.6955V15.9424C17.8337 15.8996 17.823 15.8649 17.8016 15.8382C17.7802 15.8115 17.7482 15.7929 17.7055 15.7822L15.9555 15.4263C15.9234 15.4156 15.8954 15.4143 15.8714 15.4224C15.8473 15.4304 15.8219 15.4478 15.7951 15.4745L14.3112 16.9745Z" fill="#614C2B"/>
</svg>
