<svg width="24" height="24" viewBox="0 0 24 24" fill="none" xmlns="http://www.w3.org/2000/svg">
<path d="M8.8 20C8.36 20 7.98333 19.8433 7.67 19.53C7.35667 19.2167 7.2 18.84 7.2 18.4C7.2 17.96 7.35667 17.5833 7.67 17.27C7.98333 16.9567 8.36 16.8 8.8 16.8C9.24 16.8 9.61667 16.9567 9.93 17.27C10.2433 17.5833 10.4 17.96 10.4 18.4C10.4 18.84 10.2433 19.2167 9.93 19.53C9.61667 19.8433 9.24 20 8.8 20ZM16.8 20C16.36 20 15.9833 19.8433 15.67 19.53C15.3567 19.2167 15.2 18.84 15.2 18.4C15.2 17.96 15.3567 17.5833 15.67 17.27C15.9833 16.9567 16.36 16.8 16.8 16.8C17.24 16.8 17.6167 16.9567 17.93 17.27C18.2433 17.5833 18.4 17.96 18.4 18.4C18.4 18.84 18.2433 19.2167 17.93 19.53C17.6167 19.8433 17.24 20 16.8 20ZM8.12 7.2L10.04 11.2H15.64L17.84 7.2H8.12ZM7.36 5.6H19.16C19.4667 5.6 19.7 5.73667 19.86 6.01C20.02 6.28333 20.0267 6.56 19.88 6.84L17.04 11.96C16.8933 12.2267 16.6967 12.4333 16.45 12.58C16.2033 12.7267 15.9333 12.8 15.64 12.8H9.68L8.8 14.4H18.4V16H8.8C8.2 16 7.74667 15.7367 7.44 15.21C7.13333 14.6833 7.12 14.16 7.4 13.64L8.48 11.68L5.6 5.6H4V4H6.6L7.36 5.6Z" fill="#614C2B"/>
</svg>
