<svg width="24" height="24" viewBox="0 0 24 24" fill="none" xmlns="http://www.w3.org/2000/svg">
<path d="M7.69901 18.75C7.01246 18.75 6.42836 18.5091 5.94671 18.0273C5.46491 17.5457 5.22401 16.9616 5.22401 16.275H3.09528L3.39633 14.925H5.68796C5.89676 14.5823 6.17801 14.3091 6.53171 14.1055C6.88526 13.9018 7.27436 13.8 7.69901 13.8C8.12366 13.8 8.51283 13.9018 8.86653 14.1055C9.22008 14.3091 9.50133 14.5823 9.71028 14.925H13.6667L15.6001 6.6H5.74511L5.80046 6.36465C5.86736 6.0369 6.02741 5.76922 6.28061 5.56162C6.53396 5.35387 6.83193 5.25 7.17453 5.25H17.2874L16.5069 8.625H18.7587L21.3288 12.052L20.4894 16.275H19.0701C19.0701 16.9616 18.8292 17.5457 18.3476 18.0273C17.8658 18.5091 17.2817 18.75 16.5953 18.75C15.9087 18.75 15.3246 18.5091 14.8428 18.0273C14.3611 17.5457 14.1203 16.9616 14.1203 16.275H10.174C10.174 16.9616 9.93311 17.5457 9.45131 18.0273C8.96966 18.5091 8.38556 18.75 7.69901 18.75ZM15.4892 13.0125H19.7538L19.8785 12.3755L18.0837 9.975H16.197L15.4892 13.0125ZM15.4685 7.12965L15.6001 6.6L13.6667 14.925L13.7983 14.3954L14.5372 11.1796L15.4685 7.12965ZM2.15186 13.0454L2.48936 11.6954H6.98081L6.64331 13.0454H2.15186ZM3.95186 9.82965L4.28936 8.47965H9.68081L9.34331 9.82965H3.95186ZM7.69901 17.4C8.01176 17.4 8.27741 17.2907 8.49596 17.0719C8.71466 16.8534 8.82401 16.5878 8.82401 16.275C8.82401 15.9623 8.71466 15.6966 8.49596 15.4781C8.27741 15.2593 8.01176 15.15 7.69901 15.15C7.38626 15.15 7.12061 15.2593 6.90206 15.4781C6.68336 15.6966 6.57401 15.9623 6.57401 16.275C6.57401 16.5878 6.68336 16.8534 6.90206 17.0719C7.12061 17.2907 7.38626 17.4 7.69901 17.4ZM16.5953 17.4C16.9079 17.4 17.1735 17.2907 17.3922 17.0719C17.6109 16.8534 17.7203 16.5878 17.7203 16.275C17.7203 15.9623 17.6109 15.6966 17.3922 15.4781C17.1735 15.2593 16.9079 15.15 16.5953 15.15C16.2825 15.15 16.0168 15.2593 15.7981 15.4781C15.5794 15.6966 15.4701 15.9623 15.4701 16.275C15.4701 16.5878 15.5794 16.8534 15.7981 17.0719C16.0168 17.2907 16.2825 17.4 16.5953 17.4Z" fill="#B7751E"/>
</svg>
