<svg width="24" height="24" viewBox="0 0 24 24" fill="none" xmlns="http://www.w3.org/2000/svg">
<path d="M4.53867 18.3818C4.24117 18.6793 4.24117 19.1616 4.53866 19.4591C4.83615 19.7566 5.31848 19.7566 5.61597 19.4591L11.9991 13.0757L18.3822 19.4591C18.6797 19.7566 19.162 19.7566 19.4595 19.4591C19.757 19.1616 19.757 18.6793 19.4595 18.3818L13.0761 11.9987L19.4595 5.61554C19.757 5.31806 19.757 4.83573 19.4595 4.53823C19.162 4.24074 18.6797 4.24075 18.3822 4.53825L11.9991 10.9216L5.61597 4.53825C5.31849 4.24075 4.83615 4.24074 4.53866 4.53823C4.24117 4.83573 4.24117 5.31806 4.53867 5.61554L10.9221 11.9987L4.53867 18.3818Z" fill="#614C2B"/>
</svg>
