<svg width="24" height="24" viewBox="0 0 24 24" fill="none" xmlns="http://www.w3.org/2000/svg">
<path d="M5.47368 17.9716C6.52491 17.247 7.57079 16.6854 8.61132 16.2866C9.65184 15.8876 10.7814 15.6882 12 15.6882C13.2186 15.6882 14.3509 15.8876 15.3968 16.2866C16.4426 16.6854 17.4911 17.247 18.5424 17.9716C19.3076 17.0851 19.8761 16.1489 20.2479 15.1632C20.6196 14.1774 20.8055 13.123 20.8055 12C20.8055 9.51684 19.9588 7.42842 18.2653 5.73474C16.5716 4.04123 14.4832 3.19447 12 3.19447C9.51684 3.19447 7.42842 4.04123 5.73474 5.73474C4.04123 7.42842 3.19447 9.51684 3.19447 12C3.19447 13.123 3.38307 14.1774 3.76026 15.1632C4.13746 16.1489 4.7086 17.0851 5.47368 17.9716ZM11.9942 12.5971C11.0481 12.5971 10.2521 12.2724 9.60632 11.6229C8.96053 10.9732 8.63763 10.1754 8.63763 9.22921C8.63763 8.2829 8.96246 7.48684 9.6121 6.84105C10.2616 6.19526 11.0595 5.87237 12.0058 5.87237C12.9519 5.87237 13.7479 6.19719 14.3937 6.84684C15.0395 7.49632 15.3624 8.29421 15.3624 9.24053C15.3624 10.1868 15.0375 10.9828 14.3879 11.6284C13.7384 12.2742 12.9405 12.5971 11.9942 12.5971ZM12.0124 22C10.6262 22 9.32588 21.7389 8.11132 21.2166C6.89658 20.6943 5.83553 19.9787 4.92816 19.0697C4.02061 18.161 3.3057 17.102 2.78342 15.8929C2.26114 14.6838 2 13.3855 2 11.9982C2 10.6108 2.26114 9.31316 2.78342 8.10526C3.3057 6.89737 4.02132 5.83903 4.93026 4.93026C5.83904 4.02132 6.89798 3.3057 8.10711 2.78342C9.31623 2.26114 10.6145 2 12.0018 2C13.3892 2 14.6868 2.26114 15.8947 2.78342C17.1026 3.3057 18.161 4.02132 19.0697 4.93026C19.9787 5.83903 20.6943 6.89763 21.2166 8.10605C21.7389 9.31447 22 10.6083 22 11.9876C22 13.3738 21.7389 14.6741 21.2166 15.8887C20.6943 17.1034 19.9787 18.1645 19.0697 19.0718C18.161 19.9794 17.1024 20.6943 15.8939 21.2166C14.6855 21.7389 13.3917 22 12.0124 22ZM12 20.8055C12.9784 20.8055 13.9433 20.65 14.8947 20.3389C15.8461 20.0279 16.7422 19.5249 17.5829 18.83C16.7422 18.2119 15.8518 17.7328 14.9118 17.3926C13.972 17.0526 13.0014 16.8826 12 16.8826C10.9986 16.8826 10.0262 17.051 9.08289 17.3876C8.13956 17.7243 7.2543 18.2051 6.42711 18.83C7.26114 19.5249 8.15386 20.0279 9.10526 20.3389C10.0567 20.65 11.0216 20.8055 12 20.8055ZM12.0013 11.4029C12.6306 11.4029 13.149 11.1986 13.5566 10.79C13.9643 10.3816 14.1682 9.86272 14.1682 9.23342C14.1682 8.60412 13.9639 8.0857 13.5553 7.67816C13.1468 7.27061 12.628 7.06684 11.9987 7.06684C11.3694 7.06684 10.851 7.27105 10.4434 7.67947C10.0357 8.08807 9.83184 8.60702 9.83184 9.23632C9.83184 9.86561 10.0361 10.384 10.4447 10.7916C10.8532 11.1991 11.372 11.4029 12.0013 11.4029Z" fill="#614C2B"/>
</svg>
