<svg width="24" height="24" viewBox="0 0 24 24" fill="none" xmlns="http://www.w3.org/2000/svg">
<path d="M14.6937 15.0092L11.8999 12.2154V8.26922H13.0999V11.7246L15.5291 14.1538L14.6937 15.0092ZM11.8999 6.70002V5.10002H13.0999V6.70002H11.8999ZM17.2999 12.1V10.9H18.8999V12.1H17.2999ZM11.8999 17.9V16.3H13.0999V17.9H11.8999ZM6.0999 12.1V10.9H7.6999V12.1H6.0999ZM12.5013 19.1C11.4501 19.1 10.462 18.9006 9.5371 18.5016C8.61217 18.1027 7.80764 17.5613 7.1235 16.8774C6.43937 16.1936 5.8977 15.3894 5.4985 14.4648C5.09944 13.5403 4.8999 12.5525 4.8999 11.5014C4.8999 10.4502 5.09937 9.46216 5.4983 8.53722C5.89724 7.61229 6.43864 6.80776 7.1225 6.12362C7.80637 5.43949 8.61057 4.89782 9.5351 4.49862C10.4596 4.09956 11.4474 3.90002 12.4985 3.90002C13.5497 3.90002 14.5378 4.09949 15.4627 4.49842C16.3876 4.89736 17.1922 5.43876 17.8763 6.12262C18.5604 6.80649 19.1021 7.61069 19.5013 8.53522C19.9004 9.45976 20.0999 10.4476 20.0999 11.4986C20.0999 12.5498 19.9004 13.5379 19.5015 14.4628C19.1026 15.3878 18.5612 16.1923 17.8773 16.8764C17.1934 17.5606 16.3892 18.1022 15.4647 18.5014C14.5402 18.9005 13.5524 19.1 12.5013 19.1ZM12.4999 17.9C14.2866 17.9 15.7999 17.28 17.0399 16.04C18.2799 14.8 18.8999 13.2867 18.8999 11.5C18.8999 9.71336 18.2799 8.20002 17.0399 6.96002C15.7999 5.72002 14.2866 5.10002 12.4999 5.10002C10.7132 5.10002 9.1999 5.72002 7.9599 6.96002C6.7199 8.20002 6.0999 9.71336 6.0999 11.5C6.0999 13.2867 6.7199 14.8 7.9599 16.04C9.1999 17.28 10.7132 17.9 12.4999 17.9Z" fill="#614C2B"/>
</svg>
