<svg width="24" height="24" viewBox="0 0 24 24" fill="none" xmlns="http://www.w3.org/2000/svg">
<path d="M3 21.5385V4.80775C3 4.30258 3.175 3.875 3.525 3.525C3.875 3.175 4.30258 3 4.80775 3H20.1923C20.6974 3 21.125 3.175 21.475 3.525C21.825 3.875 22 4.30258 22 4.80775V16.1923C22 16.6974 21.825 17.125 21.475 17.475C21.125 17.825 20.6974 18 20.1923 18H6.5385L3 21.5385ZM5.9 16.5H20.1923C20.2693 16.5 20.3398 16.4679 20.4038 16.4038C20.4679 16.3398 20.5 16.2692 20.5 16.1923V4.80775C20.5 4.73075 20.4679 4.66025 20.4038 4.59625C20.3398 4.53208 20.2693 4.5 20.1923 4.5H4.80775C4.73075 4.5 4.66025 4.53208 4.59625 4.59625C4.53208 4.66025 4.5 4.73075 4.5 4.80775V17.8848L5.9 16.5Z" fill="#614C2B"/>
</svg>
