<svg width="40" height="40" viewBox="0 0 40 40" fill="none" xmlns="http://www.w3.org/2000/svg">
<rect x="0.25" y="0.25" width="39.5" height="39.5" rx="19.75" fill="#FFC972"/>
<rect x="0.25" y="0.25" width="39.5" height="39.5" rx="19.75" stroke="white" stroke-width="0.5"/>
<path fill-rule="evenodd" clip-rule="evenodd" d="M11.9997 19.9987C11.9999 18.4594 12.4442 16.9528 13.2794 15.6597C14.1145 14.3666 15.3051 13.3419 16.7082 12.7087C18.1112 12.0754 19.6672 11.8605 21.1894 12.0896C22.7116 12.3188 24.1354 12.9823 25.2899 14.0005C26.4443 15.0187 27.2805 16.3485 27.698 17.8301C28.1154 19.3118 28.0965 20.8824 27.6435 22.3536C27.1905 23.8248 26.3225 25.134 25.1439 26.1242C23.9652 27.1143 22.5259 27.7433 20.9986 27.9358V21.9985H22.9984C23.2636 21.9985 23.5179 21.8932 23.7054 21.7056C23.8929 21.5181 23.9982 21.2638 23.9982 20.9986C23.9982 20.7334 23.8929 20.4791 23.7054 20.2916C23.5179 20.1041 23.2636 19.9987 22.9984 19.9987H20.9986V17.999C20.9986 17.7338 21.104 17.4795 21.2915 17.292C21.479 17.1045 21.7333 16.9991 21.9985 16.9991H22.4984C22.7636 16.9991 23.0179 16.8938 23.2055 16.7063C23.393 16.5188 23.4983 16.2644 23.4983 15.9992C23.4983 15.7341 23.393 15.4797 23.2055 15.2922C23.0179 15.1047 22.7636 14.9994 22.4984 14.9994H21.9985C21.2029 14.9994 20.44 15.3154 19.8774 15.8779C19.3149 16.4405 18.9989 17.2034 18.9989 17.999V19.9987H16.9991C16.7339 19.9987 16.4796 20.1041 16.2921 20.2916C16.1046 20.4791 15.9992 20.7334 15.9992 20.9986C15.9992 21.2638 16.1046 21.5181 16.2921 21.7056C16.4796 21.8932 16.7339 21.9985 16.9991 21.9985H18.9989V27.9358C17.0657 27.6922 15.2879 26.7514 13.9993 25.2901C12.7106 23.8287 11.9996 21.9472 11.9997 19.9987ZM19.9987 29.9975C25.5211 29.9975 29.9975 25.5211 29.9975 19.9987C29.9975 14.4764 25.5211 10 19.9987 10C14.4764 10 10 14.4764 10 19.9987C10 25.5211 14.4764 29.9975 19.9987 29.9975Z" fill="white"/>
</svg>
