<svg width="40" height="40" viewBox="0 0 40 40" fill="none" xmlns="http://www.w3.org/2000/svg">
<rect x="0.25" y="0.25" width="39.5" height="39.5" rx="19.75" fill="#FFC972"/>
<rect x="0.25" y="0.25" width="39.5" height="39.5" rx="19.75" stroke="white" stroke-width="0.5"/>
<path d="M15.8586 10.07C14.7944 10.12 14.0678 10.29 13.4336 10.5392C12.7667 10.7918 12.1627 11.1865 11.6636 11.6959C11.1564 12.1964 10.764 12.8012 10.5136 13.4684C10.2678 14.105 10.1003 14.8334 10.0536 15.8967C10.0069 16.96 9.99612 17.3034 10.0011 20.0192C10.0061 22.7351 10.0186 23.075 10.0703 24.1417C10.1211 25.2059 10.2903 25.9326 10.5394 26.5676C10.7961 27.2251 11.1394 27.7817 11.6961 28.3367C12.1971 28.8442 12.8025 29.2366 13.4703 29.4867C14.1061 29.7326 14.8336 29.9001 15.8978 29.9467C16.9628 29.9934 17.3053 30.0042 20.0203 29.9992C22.7353 29.9942 23.0769 29.9817 24.1428 29.9309C25.2094 29.8809 25.9319 29.7101 26.5678 29.4617C27.2344 29.209 27.8381 28.8143 28.3369 28.305C28.8444 27.8041 29.2368 27.1987 29.4869 26.5309C29.7328 25.8951 29.9003 25.1676 29.9461 24.1042C29.9928 23.0375 30.0044 22.6959 29.9986 19.9809C29.9936 17.2659 29.9819 16.925 29.9311 15.8584C29.8811 14.7917 29.7111 14.0684 29.4611 13.4325C29.2086 12.766 28.8142 12.1624 28.3053 11.6634C27.8045 11.156 27.1994 10.7636 26.5319 10.5134C25.8953 10.2684 25.1686 10.1 24.1036 10.055C23.0394 10.0075 22.6969 9.99505 19.9811 10C17.2653 10.005 16.9253 10.0175 15.8586 10.07ZM15.9753 28.1476C15.0003 28.1059 14.4711 27.9434 14.1186 27.8076C13.6836 27.6486 13.2899 27.3937 12.9669 27.0617C12.6339 26.7401 12.3776 26.3476 12.2169 25.9134C12.0794 25.5609 11.9144 25.0317 11.8694 24.0567C11.8194 23.0034 11.8094 22.6867 11.8028 20.0167C11.7978 17.3467 11.8078 17.0309 11.8536 15.9767C11.8953 15.0025 12.0586 14.4725 12.1936 14.12C12.3736 13.6525 12.5911 13.32 12.9394 12.9684C13.2613 12.6352 13.6541 12.3789 14.0886 12.2184C14.4411 12.0809 14.9694 11.9175 15.9444 11.8709C16.9986 11.8209 17.3144 11.8109 19.9844 11.8042C22.6536 11.7992 22.9703 11.8092 24.0261 11.8559C24.9994 11.8975 25.5294 12.0592 25.8819 12.1959C26.3486 12.3759 26.6819 12.5917 27.0336 12.9417C27.3853 13.2917 27.6011 13.6225 27.7836 14.09C27.9211 14.4417 28.0853 14.97 28.1311 15.9459C28.1811 17 28.1928 17.3167 28.1978 19.9859C28.2019 22.6551 28.1928 22.9717 28.1469 24.0259C28.1044 25.0009 27.9428 25.5301 27.8069 25.8842C27.6269 26.3509 27.4094 26.6842 27.0603 27.0342C26.7387 27.3673 26.3462 27.6236 25.9119 27.7842C25.5603 27.9217 25.0303 28.0859 24.0569 28.1326C23.0019 28.1826 22.6861 28.1926 20.0153 28.1984C17.3444 28.2042 17.0303 28.1926 15.9753 28.1476ZM24.1278 14.655C24.1281 14.8924 24.1988 15.1244 24.331 15.3215C24.4632 15.5187 24.6508 15.6723 24.8703 15.7628C25.0897 15.8532 25.3311 15.8766 25.5638 15.8299C25.7966 15.7832 26.0102 15.6686 26.1778 15.5004C26.3453 15.3323 26.4593 15.1182 26.5051 14.8853C26.551 14.6524 26.5268 14.4112 26.4356 14.192C26.3443 13.9729 26.1901 13.7858 25.9925 13.6543C25.7948 13.5228 25.5627 13.4529 25.3253 13.4534C25.0072 13.454 24.7023 13.581 24.4778 13.8063C24.2532 14.0317 24.1273 14.3369 24.1278 14.655ZM14.8661 20.01C14.8688 21.3718 15.4123 22.6768 16.3771 23.6378C17.3419 24.5989 18.6489 25.1373 20.0107 25.1346C21.3725 25.132 22.6774 24.5885 23.6385 23.6237C24.5995 22.6589 25.1379 21.3518 25.1353 19.99C25.1156 18.6395 24.5647 17.3511 23.6018 16.4039C22.6388 15.4567 21.3415 14.9271 19.9908 14.9297C18.6401 14.9323 17.3449 15.467 16.3857 16.418C15.4264 17.3689 14.8805 18.6594 14.8661 20.01ZM16.6669 20.0067C16.6656 19.3474 16.8598 18.7026 17.225 18.1537C17.5902 17.6048 18.1099 17.1765 18.7185 16.923C19.3271 16.6695 19.9972 16.6022 20.644 16.7295C21.2909 16.8568 21.8855 17.1731 22.3526 17.6383C22.8197 18.1036 23.1383 18.6969 23.2683 19.3432C23.3982 19.9896 23.3335 20.6599 23.0824 21.2695C22.8313 21.8791 22.4051 22.4005 21.8577 22.7679C21.3103 23.1353 20.6662 23.3321 20.0069 23.3334C19.5692 23.3343 19.1356 23.2489 18.7308 23.0822C18.3261 22.9155 17.9581 22.6707 17.648 22.3618C17.3378 22.0529 17.0916 21.6859 16.9232 21.2818C16.7549 20.8777 16.6678 20.4445 16.6669 20.0067Z" fill="white"/>
</svg>
