<svg width="40" height="40" viewBox="0 0 40 40" fill="none" xmlns="http://www.w3.org/2000/svg">
<rect x="0.25" y="0.25" width="39.5" height="39.5" rx="19.75" fill="#FFC972"/>
<rect x="0.25" y="0.25" width="39.5" height="39.5" rx="19.75" stroke="white" stroke-width="0.5"/>
<path d="M17.4612 17.52C17.1334 17.295 16.0454 16.5175 16.0454 16.5175C16.9634 15.1663 18.174 14.64 19.8485 14.64C21.0324 14.64 22.0379 15.0487 22.7555 15.825C23.4731 16.6012 23.8824 17.7112 23.9759 19.13C24.3741 19.3025 24.7405 19.5042 25.0748 19.735C26.4214 20.6663 27.1621 22.06 27.1621 23.6562C27.1621 27.0513 24.4591 30 19.5656 30C15.3641 30 11 27.4837 11 19.9925C11 12.5425 15.2281 10 19.5534 10C21.4538 10 25.7847 10.2746 27.7196 15.4516C27.8897 15.9065 27.6133 16.3983 27.1441 16.5237C26.6987 16.6427 26.2424 16.3888 26.0692 15.9615C24.6197 12.3834 21.9592 11.7875 19.5073 11.7875C15.1784 11.7875 12.7291 14.5013 12.7291 20.275C12.7291 25.4538 15.4661 28.2038 19.5656 28.2038C22.9376 28.2038 25.4512 26.4 25.4512 23.7587C25.4512 21.9613 23.9844 21.1 23.9091 21.1C23.6225 22.6425 22.8551 25.2375 19.4842 25.2375C17.5195 25.2375 15.8256 23.84 15.8256 22.01C15.8256 19.3975 18.2347 18.4513 20.1363 18.4513C20.8479 18.4513 21.7076 18.5013 22.1556 18.5938C22.1556 17.7975 21.4999 16.4337 19.8485 16.4337C18.3318 16.4337 17.9475 16.9392 17.4611 17.5174C17.4605 17.5182 17.4605 17.5193 17.4612 17.52ZM20.3694 20.2375C17.8923 20.2375 17.5717 21.325 17.5717 22.0075C17.5717 23.105 18.8382 23.4675 19.5146 23.4675C20.7531 23.4675 22.0245 23.115 22.2249 20.4387C21.6169 20.2927 20.9936 20.2251 20.3694 20.2375Z" fill="white"/>
</svg>
